<!-- icon666.com - MILLIONS OF FREE VECTOR ICONS --><svg id="Capa_1" enable-background="new 0 0 512 512" viewBox="0 0 512 512" xmlns="http://www.w3.org/2000/svg" xmlns:xlink="http://www.w3.org/1999/xlink"><linearGradient id="SVGID_1_" gradientUnits="userSpaceOnUse" x1="256" x2="256" y1="421" y2="0"><stop offset="0" stop-color="#5558ff"></stop><stop offset="1" stop-color="#00c0ff"></stop></linearGradient><linearGradient id="SVGID_2_" gradientUnits="userSpaceOnUse" x1="256.003" x2="256.003" y1="331.2" y2="60"><stop offset="0" stop-color="#addcff"></stop><stop offset=".5028" stop-color="#eaf6ff"></stop><stop offset="1" stop-color="#eaf6ff"></stop></linearGradient><g><g><g><path d="m467 0h-422c-24.901 0-45 20.1-45 45v300c0 24.898 20.099 45 45 45h151l60.003 31 59.997-31h151c24.9 0 45-20.102 45-45v-300c0-24.9-20.1-45-45-45z" fill="url(#SVGID_1_)"></path></g></g><g><g><path d="m391 482h-30c-24.9 0-45-20.102-45-45v-47h-120v47c0 24.898-20.1 45-45 45h-30c-8.401 0-15 6.599-15 15 0 8.399 6.599 15 15 15h270c8.401 0 15-6.601 15-15 0-8.401-6.599-15-15-15zm26.836-386.229c-2.842-3.647-7.207-5.771-11.836-5.771h-221.689l-3.604-17.944c-1.406-7.002-7.559-12.056-14.707-12.056h-60c-8.291 0-15 6.709-15 15s6.709 15 15 15h47.695l27.598 137.944c1.406 7.002 7.559 12.056 14.707 12.056h30 120 30c6.885 0 12.891-4.688 14.561-11.367l30-120c1.113-4.483.117-9.229-2.725-12.862zm-146.836 114.229h-62.695l-6.006-30h68.701zm0-60h-74.707l-6.006-30h80.713zm93.281 60h-63.281v-30h70.781zm15-60h-78.281v-30h85.781zm-198.281 135c0 24.814 20.186 45 45 45s45-20.186 45-45-20.186-45-45-45-45 20.186-45 45zm120 0c0 24.814 20.186 45 45 45s45-20.186 45-45-20.186-45-45-45-45 20.186-45 45z" fill="url(#SVGID_2_)"></path></g></g></g></svg>